<?xml version="1.0" standalone="no"?>
<!DOCTYPE svg PUBLIC "-//W3C//DTD SVG 20010904//EN"
 "http://www.w3.org/TR/2001/REC-SVG-20010904/DTD/svg10.dtd">
<svg version="1.0" xmlns="http://www.w3.org/2000/svg"
 width="500.000000pt" height="500.000000pt" viewBox="0 0 500.000000 500.000000"
 preserveAspectRatio="xMidYMid meet">

<g transform="translate(0.000000,500.000000) scale(0.100000,-0.100000)"
fill="#000000" stroke="none">
<path d="M2480 4606 l0 -396 44 0 c104 0 278 -50 406 -117 221 -115 384 -315
466 -568 31 -98 44 -319 25 -431 -39 -230 -178 -458 -362 -594 -84 -62 -212
-131 -287 -154 -82 -25 -15 -17 81 10 384 108 680 350 855 699 154 308 179
700 65 1035 -34 101 -122 269 -185 355 -76 103 -231 252 -332 319 -208 137
-419 207 -698 232 l-78 6 0 -396z"/>
<path d="M2307 4980 c-211 -36 -432 -166 -565 -333 -73 -92 -143 -226 -178
-343 -25 -81 -27 -104 -28 -254 -1 -198 14 -262 99 -435 101 -204 276 -366
485 -449 63 -25 173 -56 195 -56 5 0 -26 20 -70 43 -337 177 -407 624 -140
892 66 66 168 123 270 152 l60 17 -38 8 c-104 22 -205 106 -259 216 -31 62
-33 74 -33 167 0 92 3 106 32 167 39 83 107 151 188 190 63 29 61 31 -18 18z"/>
<path d="M653 4024 c-1 -11 3 -71 8 -133 19 -228 75 -429 180 -646 227 -468
641 -813 1148 -956 131 -36 161 -36 56 0 -364 128 -666 392 -830 727 -90 183
-132 344 -145 561 -11 166 -14 180 -50 253 -56 111 -183 198 -304 207 -56 5
-63 4 -63 -13z"/>
<path d="M4310 3618 c0 -550 -13 -686 -92 -928 -33 -101 -123 -297 -182 -394
-130 -212 -337 -423 -561 -571 -145 -95 -403 -209 -542 -240 l-33 -7 0 164
c-1 201 -10 280 -43 352 -61 132 -232 241 -344 220 l-33 -6 0 -389 0 -389 108
0 c59 0 150 -3 204 -7 96 -6 96 -6 100 18 3 22 15 27 123 55 152 39 235 65
316 99 616 254 1080 752 1283 1377 70 216 114 508 103 690 -7 138 -69 249
-175 316 -55 35 -139 62 -194 62 l-38 0 0 -422z"/>
<path d="M3200 1030 c0 -444 -11 -399 96 -379 284 52 407 398 223 630 -61 77
-185 139 -280 139 l-39 0 0 -390z"/>
<path d="M2503 633 l-23 -4 0 -316 0 -315 48 6 c154 22 269 103 329 231 27 57
28 68 31 233 l4 172 -184 -1 c-101 -1 -193 -4 -205 -6z"/>
</g>
</svg>
